<?xml version="1.0" encoding="utf-8"?>
<!-- Generator: Adobe Illustrator 27.0.0, SVG Export Plug-In . SVG Version: 6.00 Build 0)  -->
<svg version="1.1" id="Layer_1" xmlns="http://www.w3.org/2000/svg" xmlns:xlink="http://www.w3.org/1999/xlink" x="0px" y="0px"
	 width="46.5px" height="31.3px" viewBox="0 0 46.5 31.3" style="enable-background:new 0 0 46.5 31.3;" xml:space="preserve">
<style type="text/css">
	.st0{fill:#CC0000;}
</style>
<g>
	<path class="st0" d="M15.5,31.1c-1.1,0-2.1,0.1-3.1,0.3c-1.2-0.3-2.5-0.3-3.8-0.3c-2.8-0.1-5.6,0.2-8.4,0.2L0,30.7l0.1,0.1
		c0.1,0,0.3-0.1,0.3-0.2l0.1-0.3h0.1c0.8,0.1,1.1-0.6,1.8-0.6c0.3,0,0.5,0.1,0.7,0.2l0.5-0.3c1-0.2,2-0.2,2.6-0.8
		c0.1-0.5,0.8-1,0.8-1.2l0.1-2.7c0.3,0,0.4-0.1,0.6-0.2c-0.8-1.3-0.6-2.8-0.8-4.2C7,20.1,7,19.7,7,19.3c0-0.7-0.1-1.4-0.6-2
		c0.4-0.1,0.7-0.3,0.7-0.6c0-0.5-0.3-1-0.1-1.5l-0.5-0.3c0.2,0,0.3-0.1,0.5-0.2c0-0.4-0.3-0.8-0.3-1.2c0-0.2,0.1-0.4,0.3-0.6
		c-0.2-0.3-0.3-0.8-0.3-1.3c0-0.2,0.1-0.5,0.4-0.7c-0.6-1-0.2-1.3-0.2-2.3C6.9,7.4,7,4.6,6.2,3.7l0.2-0.1C5.6,3.2,6.1,2.1,5,2.4
		C4.4,1.3,2.2,2,0.8,1.5C0.9,1.4,1,1.3,1,1.3C1,0.9,0.1,1,0.2,0.6l0.1,0.1c0.1,0,0.3-0.1,0.3-0.1l0.1-0.1c0-0.1-0.3-0.2-0.3-0.3
		C0.5,0.1,0.6,0,0.6,0c0.6,0.1,1.3,0.8,1.8,0.8c0.3,0,0.4-0.5,0.5-0.7c1,0.1,2.2,0.2,3.3,0.3c2.8,0,5.4-0.3,8.2-0.3
		C16,0.1,17.4,0.2,19,0.5v0.1c0.1,0.8-1.3,1.3-2.1,1.7c-0.1-0.1-0.3-0.1-0.6-0.1c-0.9,0-1.7,0.5-2.6,0.7c0.1,0.1,0.1,0.1,0.1,0.2
		c0,0.3-0.8,0-1,0.5L13,3.7l-0.5,0.6c0.2,0.1,0.7,0.1,0.7,0.3c0,0.3-0.8,0.7-0.9,1.1l0.1,0.2l-0.3,0.3c0,0.1,0.1,0.2,0.3,0.2
		c0.1,0,0.3-0.1,0.4-0.2c-0.1,1.4,0,3.3-0.3,4.6c1.3,2.2,0.6,6.7,0.5,9.1c0,1.7,0.1,3.3,0.7,4.9c-0.5,0.4-0.6,0.9-0.6,1.4
		c-0.1,0.6,0.1,1.1,0,1.6c1.5,2.7,7.3-0.1,7.2,3.1C18.7,31.3,17.1,31.1,15.5,31.1z M7.5,19.8H7.1V20h0.3V19.8z M7.5,27.3H7.1v0.3
		l0.4,0.1V27.3z M7.8,5.5H7.5v0.3h0.3V5.5z M8.4,0.6H8v0.3h0.3V0.6z M8.5,29H8.1v0.3h0.4V29z M8.9,26.3H8.6v0.3h0.3V26.3z M9.3,10
		H9.1v0.3h0.3V10z M9.8,2.7H9.5v0.2h0.3V2.7z M11.1,2h-0.3l-0.1,0.3h0.4V2z M11.4,21.7l-0.4-0.1v0.2h0.4V21.7z M12,23.2h-0.3
		l-0.1,0.3H12V23.2z M12.4,1.4h-0.6H12.4z M12.3,21.4h-0.4v0.3h0.3L12.3,21.4z M13.2,0.1H13l-0.1,0.3h0.3V0.1z M14.3,2.4h-0.5
		l0.3,0.1L14.3,2.4z M18.1,0.6h-0.3l-0.1,0.2h0.3V0.6z"/>
	<path class="st0" d="M46.2,8.4c0,0.6,0.1,1.3,0.1,2s-0.6,1.5-1.5,1.5c-1.3,0-1-1.7-1.5-2.3l0.1-1c0-2-0.3-3.8-1.8-5.4
		c-1.1-0.4-2.3-0.9-3.6-0.9c-0.3,0-0.8,0.1-1.1,0.1c-0.1,2.3-0.3,4.7-0.3,7c0,1.5,0.1,3,0.3,4.5c-0.1,0-0.3,0.1-0.3,0.2
		c0,0.2,0.1,0.3,0.1,0.6c0,0.2-0.1,0.4-0.5,0.5c0.3,0.2,0.6,0.6,0.6,1c0,0.6-0.3,1.1-0.3,1.7c0,0.3,0.1,0.6,0.3,0.8h0.1
		c0.1,0,0.3,0.1,0.3,0.2v0.3h-0.3c-0.1,0.1-0.1,0.2-0.1,0.3c0,0.3,0.3,0.7,0.6,0.9c-0.4,0-0.6,0.4-0.9,0.5c0.1,0.3,0.1,0.7,0.1,1.1
		c0,0.9-0.2,2-0.2,2.9c0,0.4,0.1,0.8,0.3,1.2h-0.1c-0.1,0-0.3,0.1-0.4,0.1c0.6,1,0.2,2,1.6,2.9l0.7,0.5h2.9c0.8,0.3,0.6,0.8,0.7,1.5
		c-1.4,0.1-2.7,0.3-4.1,0.3c-0.5,0-1-0.1-1.5-0.1c0,0.1-0.2,0.5-0.4,0.5s-0.3-0.3-1.2-0.3c-0.6,0-1.1-0.1-1.7-0.1
		c-2.6,0-5.2-0.1-7.9,0l0.3-0.2c-0.1-0.5-1.1-0.1-1.1-0.6c0-1.3,2.1-1.1,3.1-1.1s1.6-0.3,1.8-1.1c1,0,0.7-0.8,0.7-1.3
		c0-0.3,0.1-0.3,0.5-0.6c-0.3-0.3-0.4-0.8-0.4-1.2c0-0.5,0.1-0.9,0.2-1.4h0.1c0.1,0,0.3-0.1,0.3-0.1c-0.4-0.1-0.8-0.5-0.8-0.8
		c0-0.4,0.3-0.8,0.1-1.2l0.3-0.2L30,21.1l0.2-0.2l-0.7-0.3l0.3,0.2c0.2-0.3,0.4-0.8,0.7-1.1c-0.8-0.1-0.5-1.3-0.5-1.8
		c0-2.4-0.3-5-0.3-7.5c0-2.6,0.1-5.4,0.1-8.1C29.5,2,29,1.9,28.5,1.9c-1.6,0-4.4,1.2-5.2,2.2l0.1,0.1c0,0.5-0.3,0.9-0.3,1.5
		c0,0.1,0.1,0.3,0.1,0.4c-0.8,0.1-0.5,0.8-0.5,1.3c0,0.2-0.1,0.4-0.2,0.6c-0.1,0.2-0.1,0.3-0.1,0.6c0,0.6,0.1,1.1,0.1,1.7
		c0,0.7-0.5,1.5-1.6,1.5c-0.6,0-0.6-0.5-0.8-0.8c-0.1-0.4,0-0.8,0-1.2c0-0.3-0.1-0.6-0.3-0.8c0.7-0.2,0.3-0.8,0.3-1.2
		c0-0.1,0.1-0.3,0.1-0.4V0.6c0.8-0.1,1.7-0.1,2.5-0.1c0.6,0,1.3,0.1,1.8,0.1c0.3-0.3,1.2-0.1,1.7-0.1c0.4,0,1-0.1,1.3-0.3
		c1.5,0.3,3,0.3,4.5,0.3c1.7,0,3.3-0.1,5-0.1c2.1,0,4.1,0.1,6.2,0.1c0.8,0,1.7,0.1,2.5,0.2c-0.2,0.7,0.4,1.7-0.7,2.2
		c0.8,0.3,0.7,0.9,0.7,1.5c0,0.4,0.1,0.8,0.6,1.1H46c0.1,0,0.4,0.1,0.4,0.2c0,0.2-0.2,0.3-0.2,0.6c0,0.1,0.2,0.2,0.3,0.3
		C46.2,6.9,46.2,7.8,46.2,8.4z M21.3,10.4v-0.2h-0.4v0.2H21.3z M23.5,2.2V1.9h-0.3v0.3H23.5z M30.5,27.5v-0.2h-0.3v0.2H30.5z
		 M30.7,4.5V4.2h-0.3v0.3H30.7z M31.2,9V8.6h-0.3V9H31.2z M31.6,19v-0.3h-0.3V19H31.6z M31.6,20.8v-0.2h-0.3v0.2H31.6z M31.8,25.2
		V25h-0.4v0.2H31.8z M32.3,22.5v-0.3h-0.3v0.3H32.3z M33,22.9v-0.3h-0.3v0.3H33z M33.2,17.5v-0.3h-0.3v0.3H33.2z M33.4,4.1V3.8H33
		v0.3L33.4,4.1L33.4,4.1z M33.4,5V4.7H33V5H33.4z M34.3,20.8h-0.9H34.3z M33.8,3V2.8h-0.3V3H33.8z M33.8,4.7V4.5h-0.3v0.2H33.8z
		 M34,16.6v-0.3h-0.3v0.3H34z M34.2,25.4v-0.3h-0.4v0.3H34.2z M34.2,27.4v-0.2h-0.4v0.2H34.2z M34.4,20.2v-0.3h-0.3v0.3H34.4z
		 M34.6,3.3V3.1h-0.3v0.2H34.6z M34.7,26.9v-0.3h-0.3v0.3H34.7z M34.9,30.6v-0.2h-0.3v0.2H34.9z M35.5,5.7V5.5h-0.3v0.2H35.5z
		 M35.8,4.7V4.3h-0.4v0.3H35.8z M42.2,2.2V1.7h-0.4v0.5H42.2z M44.8,2.8V2.6h-0.3v0.2H44.8z"/>
</g>
</svg>
