<?xml version="1.0" encoding="utf-8"?>
<!-- Generator: Adobe Illustrator 27.0.0, SVG Export Plug-In . SVG Version: 6.00 Build 0)  -->
<svg version="1.1" id="Layer_1" xmlns="http://www.w3.org/2000/svg" xmlns:xlink="http://www.w3.org/1999/xlink" x="0px" y="0px"
	 width="73.1px" height="99.1px" viewBox="0 0 73.1 99.1" style="enable-background:new 0 0 73.1 99.1;" xml:space="preserve">
<style type="text/css">
	.st0{fill:#CC0000;}
</style>
<g>
	<path d="M4.6,20.2v-2.5h2.3v2.5c0,0.8,0.4,1.4,1.5,1.4c1,0,1.4-0.7,1.4-1.4v-3.9c0-0.9-0.3-1.4-1.4-1.4H8.1c-1.9,0-3.5-0.1-3.5-2.4
		V7.8c0-2.6,1.6-3.1,3.7-3.1c2.1,0,3.8,0.5,3.8,3.1v2.6H9.8V7.8c0-0.8-0.4-1.4-1.5-1.4S6.9,7,6.9,7.8v3.9c0,1,0.4,1.4,1.4,1.4h0.3
		c2,0,3.5,0.3,3.5,2.1v4.9c0,2.6-1.6,3.1-3.7,3.1C6.3,23.2,4.6,22.8,4.6,20.2z"/>
	<path d="M21.4,6.6h-2.7v16.6h-2.3V6.6h-2.7V4.8h7.7V6.6z"/>
	<path d="M25.9,6.6v6.3h3.4v1.7h-3.4v6.8h3.4v1.7h-5.7V4.8h5.7v1.7H25.9z"/>
	<path d="M39.7,8v4.5c0,2.6-1,3.7-3.6,3.7h-1.6v6.9h-2.3V4.8h3.8C38,4.8,39.7,5.4,39.7,8z M37.3,8c0-0.8-0.4-1.4-1.4-1.4h-1.5v8.1
		h1.5c1,0,1.4-0.7,1.4-1.4V8z"/>
	<path d="M49.8,4.8v18.3h-2.3v-8.6h-2.9v8.6h-2.3V4.8h2.3v8h2.9v-8H49.8z"/>
	<path d="M55.8,6.6v6.3h3.4v1.7h-3.4v6.8h3.4v1.7h-5.7V4.8h5.7v1.7H55.8z"/>
	<path d="M69.6,4.8v18.3h-2.3L63.8,10v13.1h-1.7V4.8h2.3l3.5,13.7V4.8H69.6z"/>
	<path d="M17.4,48.8h-4.9l-3.2-10H8.9v10H4.1V25.9h4.9v9l3.8-9h4.6l-4.1,9.8L17.4,48.8z"/>
	<path d="M18.3,25.9h4.9v22.8h-4.9V25.9z"/>
	<path d="M38.1,25.9v22.8h-4.6l-4-12.7v12.7h-3.9V25.9H30l4.1,13.5V25.9H38.1z"/>
	<path d="M48,33.6v-3.8c0-0.8-0.3-1.3-1.4-1.3c-1.1,0-1.4,0.6-1.4,1.3v15c0,0.8,0.3,1.3,1.4,1.3c1.1,0,1.4-0.6,1.4-1.3v-5.7h-1.4
		v-3.4h6.3V45c0,3.3-2.9,4-6.3,4c-3.5,0-6.2-0.8-6.2-4V29.7c0-3.3,2.7-4,6.2-4c3.7,0,6.3,0.8,6.3,4v3.9H48z"/>
	<path d="M53.7,30.6c0.7-0.2,1.1-0.7,1.1-1.7h-1V26h2.8v2.4c0,1.6-0.8,3.1-2.9,3.1V30.6z"/>
	<path d="M57.4,45.3v-4h4.9v3.6c0,0.8,0.3,1.3,1.4,1.3c1,0,1.3-0.5,1.3-1.3v-4.5c0-0.8-0.4-1.4-1.3-1.4h-2.1c-2.5,0-4.2-0.9-4.2-2.9
		v-6.5c0-3.3,3.2-3.9,6.2-3.9c3.2,0,6.3,0.7,6.3,3.7v4.2H65v-3.8c0-0.8-0.4-1.3-1.4-1.3c-1,0-1.3,0.5-1.3,1.3v4.4
		c0,0.9,0.5,1.4,1.3,1.4h2.1c2.6,0,4.2,1,4.2,2.8v6.6c0,3.3-3,4-6.2,4C60.6,49.1,57.4,48.3,57.4,45.3z"/>
</g>
<g>
	<path class="st0" d="M25.2,96.1c-1.6,0-3,0.1-4.4,0.5c-1.7-0.4-3.6-0.5-5.4-0.5c-4-0.1-8,0.3-12,0.3L3,95.6l0.2,0.1
		c0.1,0,0.4-0.2,0.5-0.3l0.1-0.5H4c1.2,0.1,1.6-0.8,2.6-0.8c0.4,0,0.7,0.2,1,0.3l0.7-0.5c1.4-0.3,2.9-0.3,3.8-1.2
		c0.1-0.7,1.1-1.4,1.1-1.7l0.1-3.9c0.4,0,0.6-0.1,0.8-0.3c-1.1-1.8-0.8-4-1.2-6c0.2-0.5,0.2-1,0.2-1.6c0-1-0.2-2-0.9-2.9
		c0.6-0.1,1-0.4,1-0.9c0-0.7-0.5-1.4-0.2-2.2l-0.7-0.5c0.3,0,0.5-0.2,0.7-0.3c0-0.6-0.5-1.1-0.5-1.7c0-0.3,0.2-0.6,0.5-0.9
		c-0.3-0.5-0.5-1.1-0.5-1.8c0-0.3,0.2-0.7,0.6-1c-0.8-1.5-0.3-1.8-0.3-3.3c0.1-1.6,0.2-5.6-0.9-6.9l0.3-0.2c-1.2-0.5-0.4-2.1-2-1.6
		c-0.9-1.6-4.1-0.7-6-1.4c0.1-0.1,0.2-0.2,0.2-0.3c0-0.5-1.2-0.3-1.1-1l0.2,0.1c0.2,0,0.5-0.2,0.5-0.2L4.1,52c0-0.1-0.4-0.3-0.5-0.4
		c0.1,0,0.2-0.1,0.2-0.1c0.9,0.1,1.8,1.1,2.6,1.1c0.5,0,0.6-0.7,0.7-1c1.5,0.2,3.1,0.3,4.7,0.4c4,0,7.8-0.5,11.8-0.5
		c2.3,0.1,4.4,0.3,6.7,0.7v0.1c0.1,1.1-1.9,1.8-3,2.4c-0.2-0.1-0.5-0.1-0.8-0.1c-1.3,0-2.5,0.7-3.8,1c0.1,0.1,0.2,0.2,0.2,0.3
		c0,0.4-1.2,0-1.5,0.7l0.3,0.2L21,57.6c0.3,0.1,1,0.2,1,0.5c0,0.5-1.2,1-1.3,1.6l0.2,0.3l-0.5,0.4c0,0.1,0.2,0.3,0.4,0.3
		c0.2,0,0.5-0.2,0.6-0.3c-0.1,2,0,4.7-0.5,6.6c1.9,3.1,0.8,9.6,0.7,13.1c0,2.4,0.1,4.8,1,7c-0.7,0.6-0.9,1.3-0.9,2
		c-0.1,0.8,0.1,1.6,0,2.3c2.1,3.9,10.5-0.1,10.4,4.4C29.8,96.4,27.5,96.2,25.2,96.1z M13.7,79.9h-0.5v0.3h0.5V79.9z M13.8,90.7h-0.6
		v0.4l0.6,0.1V90.7z M14.2,59.4h-0.5v0.4h0.5V59.4z M15,52.4h-0.5v0.4H15V52.4z M15.2,93.1h-0.6v0.4h0.6V93.1z M15.8,89.2h-0.4v0.5
		h0.4V89.2z M16.4,65.9H16v0.4h0.4V65.9z M17.1,55.4h-0.5v0.3h0.5V55.4z M18.9,54.3h-0.5l-0.1,0.4h0.6V54.3z M19.3,82.6l-0.6-0.1
		v0.3h0.6V82.6z M20.2,84.8h-0.4l-0.1,0.5h0.5V84.8z M20.8,53.5H20H20.8z M20.7,82.2h-0.6v0.5h0.5L20.7,82.2z M22,51.7h-0.4
		l-0.1,0.5H22V51.7z M23.5,55h-0.7l0.4,0.2L23.5,55z M29,52.4h-0.4l-0.1,0.3H29V52.4z"/>
	<path class="st0" d="M69.3,63.5c0,0.9,0.2,1.9,0.2,2.8s-0.8,2.2-2.2,2.2c-1.9,0-1.5-2.5-2.1-3.3l0.1-1.4c0-2.8-0.5-5.5-2.6-7.8
		c-1.6-0.6-3.3-1.3-5.1-1.3c-0.5,0-1.1,0.1-1.6,0.2c-0.2,3.3-0.5,6.7-0.5,10.1c0,2.1,0.1,4.3,0.5,6.4c-0.2,0-0.5,0.1-0.5,0.3
		c0,0.3,0.2,0.5,0.2,0.8c0,0.3-0.2,0.6-0.7,0.7c0.5,0.3,0.8,0.9,0.8,1.4c0,0.8-0.5,1.6-0.5,2.4c0,0.4,0.2,0.8,0.5,1.1h0.2
		c0.2,0,0.4,0.2,0.5,0.3v0.5H56c-0.1,0.2-0.2,0.3-0.2,0.5c0,0.5,0.4,1,0.9,1.3c-0.6,0-0.9,0.6-1.3,0.7c0.2,0.5,0.2,1,0.2,1.6
		c0,1.3-0.3,2.8-0.3,4.1c0,0.6,0.1,1.2,0.4,1.7h-0.2c-0.2,0-0.5,0.2-0.6,0.2c0.8,1.5,0.3,2.8,2.3,4.2l1,0.7h4.1
		c1.2,0.4,0.9,1.2,1,2.1c-2,0.1-3.9,0.5-5.9,0.5c-0.7,0-1.4-0.1-2.1-0.2C55.3,96.5,55,97,54.7,97s-0.5-0.5-1.7-0.5
		c-0.8,0-1.6-0.1-2.4-0.1c-3.8,0-7.5-0.2-11.3,0l0.5-0.3c-0.2-0.7-1.6-0.2-1.6-0.9c0-1.8,3-1.6,4.5-1.6s2.3-0.5,2.6-1.6
		c1.5,0,1-1.2,1-1.9c0-0.5,0.2-0.5,0.7-0.9c-0.5-0.5-0.6-1.1-0.6-1.7c0-0.7,0.2-1.3,0.3-2h0.2c0.2,0,0.4-0.2,0.5-0.2
		c-0.6-0.1-1.2-0.7-1.2-1.2c0-0.6,0.4-1.1,0.1-1.7l0.4-0.3L46,81.8l0.3-0.3l-1-0.5l0.4,0.3c0.3-0.5,0.6-1.1,1-1.6
		c-1.2-0.2-0.7-1.9-0.7-2.6c0-3.5-0.4-7.2-0.4-10.7c0-3.8,0.1-7.8,0.1-11.6c-0.4-0.4-1.1-0.6-1.8-0.6c-2.3,0-6.3,1.7-7.4,3.2
		l0.1,0.2c0,0.7-0.5,1.3-0.5,2.1c0,0.2,0.1,0.4,0.2,0.6c-1.1,0.2-0.7,1.1-0.7,1.8c0,0.3-0.1,0.6-0.3,0.8c-0.2,0.3-0.2,0.5-0.2,0.8
		c0,0.8,0.2,1.6,0.2,2.4c0,1-0.7,2.1-2.3,2.1c-0.9,0-0.9-0.7-1.2-1.1c-0.1-0.6,0-1.1,0-1.7c0-0.4-0.1-0.8-0.5-1.1
		c1-0.3,0.5-1.1,0.5-1.7c0-0.2,0.1-0.5,0.2-0.6v-9.6c1.2-0.1,2.4-0.2,3.6-0.2c0.9,0,1.8,0.1,2.6,0.2c0.5-0.4,1.7-0.2,2.4-0.2
		c0.6,0,1.4-0.1,1.8-0.5c2.1,0.4,4.3,0.5,6.4,0.5c2.4,0,4.8-0.2,7.2-0.2c3,0,5.9,0.1,8.9,0.1c1.2,0,2.4,0.1,3.6,0.3
		c-0.3,1,0.6,2.5-1,3.1c1.2,0.5,1,1.3,1,2.1c0,0.6,0.2,1.1,0.8,1.6L69,59.2c0.2,0,0.6,0.1,0.6,0.3c0,0.3-0.3,0.5-0.3,0.8
		c0,0.2,0.3,0.3,0.4,0.4C69.3,61.4,69.3,62.7,69.3,63.5z M33.6,66.4v-0.3H33v0.3H33.6z M36.7,54.6v-0.4h-0.4v0.4H36.7z M46.8,91
		v-0.3h-0.5V91H46.8z M47.1,57.9v-0.4h-0.5v0.4H47.1z M47.8,64.4v-0.5h-0.4v0.5H47.8z M48.3,78.7v-0.5h-0.5v0.5H48.3z M48.3,81.4
		v-0.3h-0.5v0.3H48.3z M48.6,87.7v-0.3H48v0.3H48.6z M49.3,83.8v-0.5h-0.5v0.5H49.3z M50.3,84.4V84h-0.5v0.4H50.3z M50.6,76.6v-0.4
		h-0.5v0.4H50.6z M50.9,57.4V57h-0.6v0.5H50.9z M50.9,58.7v-0.4h-0.6v0.4H50.9z M52.3,81.4h-1.3H52.3z M51.5,55.8v-0.3h-0.4v0.3
		H51.5z M51.5,58.3v-0.3h-0.4v0.3H51.5z M51.8,75.3v-0.5h-0.5v0.5H51.8z M52.1,88v-0.4h-0.6V88H52.1z M52.1,90.8v-0.3h-0.6v0.3H52.1
		z M52.4,80.5v-0.5H52v0.5H52.4z M52.7,56.3V56h-0.5v0.3H52.7z M52.8,90.1v-0.5h-0.5v0.5H52.8z M53.1,95.4v-0.3h-0.5v0.3H53.1z
		 M54,59.7v-0.3h-0.4v0.3H54z M54.4,58.2v-0.5h-0.6v0.5H54.4z M63.6,54.6v-0.7H63v0.7H63.6z M67.3,55.5v-0.3h-0.4v0.3H67.3z"/>
</g>
<g>
</g>
<g>
</g>
<g>
</g>
<g>
</g>
<g>
</g>
<g>
</g>
<g>
</g>
<g>
</g>
<g>
</g>
<g>
</g>
<g>
</g>
<g>
</g>
<g>
</g>
<g>
</g>
<g>
</g>
</svg>
