<?xml version="1.0" encoding="utf-8"?>
<!-- Generator: Adobe Illustrator 27.0.0, SVG Export Plug-In . SVG Version: 6.00 Build 0)  -->
<svg version="1.1" id="Layer_1" xmlns="http://www.w3.org/2000/svg" xmlns:xlink="http://www.w3.org/1999/xlink" x="0px" y="0px"
	 width="172.2px" height="92.1px" viewBox="0 0 172.2 92.1" style="enable-background:new 0 0 172.2 92.1;" xml:space="preserve">
<style type="text/css">
	.st0{fill:#CC0000;}
	.st1{fill:none;stroke:#530000;stroke-miterlimit:10;}
</style>
<rect x="4.4" y="16.3" class="st0" width="162.5" height="62.9"/>
<g>
	<path class="st1" d="M17.4,18.9l-5.1,0.8l-1-5.9L29,11l1,5.9l-5.1,0.8l4.9,29.9l-7.5,1.2L17.4,18.9z"/>
	<path class="st1" d="M31.2,10.6l7.5-1.2L41,23.9l5.2-0.9L43.8,8.5l7.5-1.2L57.2,43l-7.5,1.2l-2.6-15.6l-5.2,0.9l2.6,15.6L37,46.3
		L31.2,10.6z"/>
	<path class="st1" d="M54.7,6.8l15.2-2.5l0.9,5.4L63,10.9l1.5,8.9l5.9-1l0.9,5.5l-5.9,1l1.8,10.7l7.8-1.3l0.9,5.3l-15.3,2.5
		L54.7,6.8z"/>
	<path class="st1" d="M23.2,76.2l-2.1-12.9c-1.2-7.4,0.5-12.4,8.2-13.6c7.5-1.2,10.4,2.6,11.4,8.7l0.5,3.1l-7.3,1.2l-0.6-3.6
		c-0.3-2.1-0.7-4.3-3.1-3.9c-2.4,0.4-2.2,2.7-1.9,4.8l2.8,16.8c0.4,2.4,1.1,4.3,3.3,3.9c2.3-0.4,2.1-2.6,1.7-4.8l-0.6-3.7l7.3-1.2
		l0.5,3.1c1,6.1-0.4,11-8,12.2C27.6,87.7,24.4,83.4,23.2,76.2z"/>
	<path class="st1" d="M41.7,48.1l7.5-1.2l5,30.4l7.8-1.3l0.9,5.3l-15.2,2.5L41.7,48.1z"/>
	<path class="st1" d="M62.7,69.8l-2.2-13.3c-1.2-7.4,0.6-12.1,8.2-13.4c7.6-1.3,10.9,2.6,12.2,10l2.2,13.3
		c1.2,7.4-0.7,12.2-8.3,13.5C67.2,81.2,63.9,77.2,62.7,69.8z M75.8,69.7l-2.8-17.2c-0.3-2.1-0.9-4.1-3.3-3.8
		c-2.2,0.4-2.2,2.5-1.8,4.6l2.8,17.2c0.3,2,0.9,4.2,3.2,3.8C76.2,73.9,76.1,71.7,75.8,69.7z"/>
	<path class="st1" d="M80.7,41.7l6.3-1l5.4,20.5L91.6,40l5-0.8l6.1,20.2l-1.4-21l6.3-1l1.8,36.4l-6.5,1.1l-6.4-21.1l0.8,22l-6.6,1.1
		L80.7,41.7z"/>
	<path class="st1" d="M109.8,36.9l5.3-0.9l9.8,16.1L122,34.9l6.2-1l5.9,35.7l-5.1,0.8l-10-17.4l3,18.5l-6.4,1.1L109.8,36.9z"/>
</g>
<g>
</g>
<g>
</g>
<g>
</g>
<g>
</g>
<g>
</g>
<g>
</g>
<g>
</g>
<g>
</g>
<g>
</g>
<g>
</g>
<g>
</g>
<g>
</g>
<g>
</g>
<g>
</g>
<g>
</g>
</svg>
