<?xml version="1.0" encoding="utf-8"?>
<!-- Generator: Adobe Illustrator 27.0.0, SVG Export Plug-In . SVG Version: 6.00 Build 0)  -->
<svg version="1.1" id="Layer_1" xmlns="http://www.w3.org/2000/svg" xmlns:xlink="http://www.w3.org/1999/xlink" x="0px" y="0px"
	 width="172.2px" height="92.1px" viewBox="0 0 172.2 92.1" style="enable-background:new 0 0 172.2 92.1;" xml:space="preserve">
<style type="text/css">
	.st0{fill:#CC0000;}
	.st1{fill:none;stroke:#540000;stroke-miterlimit:10;}
</style>
<rect x="4.4" y="16.3" class="st0" width="162.5" height="62.9"/>
<g>
	<path class="st1" d="M17.4,18.9l-5.1,0.8l-1-5.9L29,11l1,5.9l-5.1,0.8l4.9,29.9l-7.5,1.2L17.4,18.9z"/>
	<path class="st1" d="M31.2,10.6l7.5-1.2L41,23.9l5.2-0.9L43.8,8.5l7.5-1.2L57.2,43l-7.5,1.2l-2.6-15.6l-5.2,0.9l2.6,15.6L37,46.3
		L31.2,10.6z"/>
	<path class="st1" d="M54.7,6.8l15.2-2.5l0.9,5.4L63,10.9l1.5,8.9l5.9-1l0.9,5.5l-5.9,1l1.8,10.7l7.8-1.3l0.9,5.3l-15.3,2.5
		L54.7,6.8z"/>
	<path class="st1" d="M19.7,51.7l7.5-1.2l2.4,14.6l3.3-15.5l7.3-1.2l-3.6,17.2L46.3,84l-7.6,1.2l-7.5-15l-0.6,1.5L33,86.2l-7.5,1.2
		L19.7,51.7z"/>
	<path class="st1" d="M42.5,48l7.5-1.2l5.9,35.7l-7.5,1.2L42.5,48z"/>
	<path class="st1" d="M53.2,46.2l8.6-1.4c8.8-1.4,11.9,1.5,13.2,9.4l2.1,13c1.3,8-0.7,11.9-9.4,13.3L59.1,82L53.2,46.2z M66.8,75.1
		c3.4-0.6,3.3-2.1,2.8-5.4L67,54.1c-0.5-3.1-1.1-4.4-4.4-3.8l-1.1,0.2l4.1,24.7L66.8,75.1z"/>
	<path class="st1" d="M79.7,67.5l6.2-2.1c0.8,4.6,2.1,6.2,4,5.9c1.5-0.3,1.7-1.7,1.5-2.9c-0.5-3-2.2-4.5-4.8-6.2L83.2,60
		c-3-1.9-5.4-4.2-6.1-8.6c-1-6,2.1-9.9,7.9-10.9c7.2-1.2,9.2,4.6,10.1,8.8l-6.3,1.9c-0.6-3.2-1.1-5.2-3.1-4.8
		c-1.4,0.2-1.8,1.9-1.5,3.1c0.4,2.6,2,3.8,4.2,5.3l3.2,2.1c3.4,2.2,6.2,4.9,7,9.9c0.8,5.1-2,9.6-7.4,10.5
		C84.9,78.2,81.2,75.4,79.7,67.5z"/>
</g>
</svg>
