<?xml version="1.0" encoding="utf-8"?>
<!-- Generator: Adobe Illustrator 27.0.0, SVG Export Plug-In . SVG Version: 6.00 Build 0)  -->
<svg version="1.1" id="Layer_1" xmlns="http://www.w3.org/2000/svg" xmlns:xlink="http://www.w3.org/1999/xlink" x="0px" y="0px"
	 width="172.2px" height="92.1px" viewBox="0 0 172.2 92.1" style="enable-background:new 0 0 172.2 92.1;" xml:space="preserve">
<style type="text/css">
	.st0{fill:#CC0000;}
	.st1{fill:none;stroke:#540000;stroke-miterlimit:10;}
</style>
<rect x="4.4" y="16.3" class="st0" width="162.5" height="62.9"/>
<g>
	<path class="st1" d="M17.4,18.9l-5.1,0.8l-1-5.9L29,11l1,5.9l-5.1,0.8l4.9,29.9l-7.5,1.2L17.4,18.9z"/>
	<path class="st1" d="M31.2,10.6l7.5-1.2L41,23.9l5.2-0.9L43.8,8.5l7.5-1.2L57.2,43l-7.5,1.2l-2.6-15.6l-5.2,0.9l2.6,15.6L37,46.3
		L31.2,10.6z"/>
	<path class="st1" d="M54.7,6.8l15.2-2.5l0.9,5.4L63,10.9l1.5,8.9l5.9-1l0.9,5.5l-5.9,1l1.8,10.7l7.8-1.3l0.9,5.3l-15.3,2.5
		L54.7,6.8z"/>
	<path class="st1" d="M23,76.8l6.2-2.1c0.8,4.6,2.1,6.2,4,5.9c1.5-0.3,1.7-1.7,1.5-2.9c-0.5-3-2.2-4.5-4.8-6.2l-3.4-2.2
		c-3-1.9-5.4-4.2-6.1-8.6c-1-6,2.1-9.9,7.9-10.9c7.2-1.2,9.2,4.6,10.1,8.8l-6.3,1.9c-0.6-3.2-1.1-5.2-3.1-4.8
		c-1.4,0.2-1.8,1.9-1.5,3.1c0.4,2.6,2,3.8,4.2,5.3l3.2,2.1c3.4,2.2,6.2,4.9,7,9.9c0.8,5.1-2,9.6-7.4,10.5
		C28.2,87.6,24.6,84.7,23,76.8z"/>
	<path class="st1" d="M44.5,53.7l-5.1,0.8l-1-5.9l17.7-2.9l1,5.9L52,52.5l4.9,29.9l-7.5,1.2L44.5,53.7z"/>
	<path class="st1" d="M61.7,70l-2.2-13.3c-1.2-7.4,0.6-12.1,8.2-13.4c7.6-1.3,10.9,2.6,12.2,10l2.2,13.3c1.2,7.4-0.7,12.2-8.3,13.5
		C66.2,81.3,62.9,77.3,61.7,70z M74.8,69.9l-2.8-17.2c-0.3-2.1-0.9-4.1-3.3-3.8c-2.2,0.4-2.2,2.5-1.8,4.6l2.8,17.2
		c0.3,2,0.9,4.2,3.2,3.8C75.2,74.1,75.1,71.9,74.8,69.9z"/>
	<path class="st1" d="M81,41.7l9.3-1.5c6.8-1.1,11.6,0.1,12.8,7.6c0.7,4.4,0.4,7.5-2.7,9.7l7.5,16.5l-7.7,1.3l-6.3-15.4l-2.1,0.3
		l2.6,16l-7.5,1.2L81,41.7z M93,55.3c3.1-0.5,3.7-2.5,3.2-5.7c-0.5-3-1.7-4.7-4.5-4.2l-2.4,0.4l1.6,9.9L93,55.3z"/>
	<path class="st1" d="M112.2,58.2l-9.9-20.1l7.1-1.2l5.1,10.8l1-11.8l6.8-1.1L119.4,57l2.4,14.6l-7.2,1.2L112.2,58.2z"/>
</g>
</svg>
