<?xml version="1.0" encoding="utf-8"?>
<!-- Generator: Adobe Illustrator 27.0.0, SVG Export Plug-In . SVG Version: 6.00 Build 0)  -->
<svg version="1.1" id="Layer_1" xmlns="http://www.w3.org/2000/svg" xmlns:xlink="http://www.w3.org/1999/xlink" x="0px" y="0px"
	 width="172.2px" height="92.1px" viewBox="0 0 172.2 92.1" style="enable-background:new 0 0 172.2 92.1;" xml:space="preserve">
<style type="text/css">
	.st0{fill:#CC0000;}
	.st1{fill:none;stroke:#540000;stroke-miterlimit:10;}
</style>
<rect x="4.4" y="16.3" class="st0" width="162.5" height="62.9"/>
<g>
	<path class="st1" d="M17.4,18.9l-5.1,0.8l-1-5.9L29,11l1,5.9l-5.1,0.8l4.9,29.9l-7.5,1.2L17.4,18.9z"/>
	<path class="st1" d="M31.2,10.6l7.5-1.2L41,23.9l5.2-0.9L43.8,8.5l7.5-1.2L57.2,43l-7.5,1.2l-2.6-15.6l-5.2,0.9l2.6,15.6L37,46.3
		L31.2,10.6z"/>
	<path class="st1" d="M54.7,6.8l15.2-2.5l0.9,5.4L63,10.9l1.5,8.9l5.9-1l0.9,5.5l-5.9,1l1.8,10.7l7.8-1.3l0.9,5.3l-15.3,2.5
		L54.7,6.8z"/>
	<path class="st1" d="M23.7,57.1l-5.1,0.8l-1-5.9l17.7-2.9l1,5.9l-5.1,0.8l4.9,29.9L28.6,87L23.7,57.1z"/>
	<path class="st1" d="M40.9,73.4l-2.2-13.3C37.5,52.7,39.4,48,47,46.8c7.6-1.3,10.9,2.6,12.2,10L61.3,70c1.2,7.4-0.7,12.2-8.3,13.5
		C45.4,84.7,42.1,80.7,40.9,73.4z M54,73.3l-2.8-17.2c-0.3-2.1-0.9-4.1-3.3-3.8c-2.2,0.4-2.2,2.5-1.8,4.6l2.8,17.2
		c0.3,2,0.9,4.2,3.2,3.8C54.4,77.5,54.3,75.3,54,73.3z"/>
	<path class="st1" d="M58.9,45.3l6.3-1l5.4,20.5l-0.9-21.2l5-0.8l6.1,20.2l-1.4-21l6.3-1l1.8,36.4l-6.5,1.1l-6.4-21.1l0.8,22
		l-6.6,1.1L58.9,45.3z"/>
	<path class="st1" d="M88,40.5l5.3-0.9l9.8,16.1l-2.8-17.2l6.2-1l5.9,35.7l-5.1,0.8l-10-17.4l3,18.5l-6.4,1.1L88,40.5z"/>
</g>
</svg>
